<svg id="eXt43DGubm21" xmlns="http://www.w3.org/2000/svg" xmlns:xlink="http://www.w3.org/1999/xlink" viewBox="0 0 375 374.999991" shape-rendering="geometricPrecision" text-rendering="geometricPrecision"><g id="eXt43DGubm22" transform="translate(82.227925 0)" opacity="0"><g clip-path="url(#eXt43DGubm26)"><g><path d="M77.476562,203.941406l10.96875-18.902344-6.117187-10.527343-17.085937,29.410156h-7.484376l20.828126-35.835937-6.117188-10.527344-28.972656,49.867187l4.070312,7.023438c19.332032,0,38.660156,0,57.96875,0l-6.117187-10.527344h-21.941407Zm0,0" fill="#222121" fill-rule="evenodd"/></g><clipPath id="eXt43DGubm26"><path d="M43.457031,157L106,157v57.449219h-62.542969Zm0,0"/></clipPath></g><g clip-path="url(#eXt43DGubm211)"><g><path d="M138.851562,203.941406L122.15625,175.207031h-12.257812l16.699218,28.734375h-7.464844l-30.6875-52.785156l3.742188-6.425781l13.152344,22.621093h12.234375c-7.148438-12.289062-14.300781-24.59375-21.449219-36.902343h-7.855469c-4.011719,6.910156-8.027343,13.796875-12.039062,20.707031l36.804687,63.292969c7.949219,0,15.898438,0,23.871094,0l4.011719-6.945313Zm0,0" fill="#e3032e" fill-rule="evenodd"/></g><clipPath id="eXt43DGubm211"><path d="M76,130.449219h64.957031v84h-64.957031Zm0,0"/></clipPath></g></g><g id="eXt43DGubm213" transform="translate(-62.566611 2.949035)" opacity="0"><g><g transform="translate(146.630661 165.117371)"><g transform="translate(.000001 0)"><path d="M22.9375,-31.03125v6.0625h-12.640625v6.53125h9.46875v5.890625h-9.46875v12.546875h-7.5625v-31.03125Zm0,0" transform="translate(.000001 0)" fill="#222121"/></g></g></g><g><g transform="translate(169.698318 165.117371)"><g transform="translate(.000001 0)"><path d="M10.171875,-31.03125v18.5625c0,1.855469.453125,3.289062,1.359375,4.296875.914062,1,2.257812,1.5,4.03125,1.5c1.769531,0,3.125-.5,4.0625-1.5.945312-1.007813,1.421875-2.441406,1.421875-4.296875v-18.5625h7.546875v18.515625c0,2.773437-.589844,5.117187-1.765625,7.03125-1.179687,1.917969-2.761719,3.367187-4.75,4.34375-1.992187.96875-4.210937,1.453125-6.65625,1.453125-2.4375,0-4.625-.476562-6.5625-1.4375-1.929687-.957031-3.453125-2.398438-4.578125-4.328125-1.117188-1.9375-1.671875-4.289063-1.671875-7.0625v-18.515625Zm0,0" transform="translate(.000001 0)" fill="#222121"/></g></g></g><g><g transform="translate(199.748199 165.117371)"><g><path d="M25.0625,-31.03125v6.0625h-8.21875v24.96875h-7.5625v-24.96875h-8.21875v-6.0625Zm0,0" fill="#222121"/></g></g></g><g><g transform="translate(146.630661 210.117371)"><g transform="translate(.000001 0.000001)"><path d="M1.453125,-15.5625c0-3.0625.660156-5.789062,1.984375-8.1875c1.332031-2.40625,3.179688-4.28125,5.546875-5.625c2.375-1.34375,5.066406-2.015625,8.078125-2.015625c3.6875,0,6.835938.976563,9.453125,2.921875c2.625,1.949219,4.378906,4.601562,5.265625,7.953125h-8.3125c-.617188-1.289063-1.492188-2.273437-2.625-2.953125-1.136719-.675781-2.429688-1.015625-3.875-1.015625-2.324219,0-4.210938.8125-5.65625,2.4375-1.4375,1.617187-2.15625,3.777344-2.15625,6.484375c0,2.710938.71875,4.875,2.15625,6.5c1.445312,1.625,3.332031,2.4375,5.65625,2.4375c1.445312,0,2.738281-.335938,3.875-1.015625c1.132812-.675781,2.007812-1.664063,2.625-2.96875h8.3125c-.886719,3.367187-2.640625,6.011719-5.265625,7.9375C23.898438,-0.742188,20.75,0.21875,17.0625,0.21875c-3.011719,0-5.703125-.664062-8.078125-2C6.617188,-3.125,4.769531,-4.988281,3.4375,-7.375c-1.324219-2.394531-1.984375-5.125-1.984375-8.1875Zm0,0" transform="translate(.000001 0.000001)" fill="#222121"/></g></g></g><g><g transform="translate(179.199448 210.117371)"><g transform="translate(.000001 0)"><path d="M17.421875,0.3125c-2.917969,0-5.59375-.675781-8.03125-2.03125-2.429687-1.351562-4.359375-3.242188-5.796875-5.671875-1.429688-2.4375-2.140625-5.175781-2.140625-8.21875c0-3.03125.710937-5.753906,2.140625-8.171875c1.4375-2.414062,3.367188-4.300781,5.796875-5.65625c2.4375-1.351562,5.113281-2.03125,8.03125-2.03125c2.914063,0,5.585937.679688,8.015625,2.03125c2.425781,1.355469,4.335938,3.242188,5.734375,5.65625c1.40625,2.417969,2.109375,5.140625,2.109375,8.171875c0,3.042969-.710938,5.78125-2.125,8.21875-1.40625,2.429687-3.320312,4.320313-5.734375,5.671875-2.417969,1.355469-5.085937,2.03125-8,2.03125Zm0-6.90625c2.46875,0,4.445313-.820312,5.9375-2.46875c1.488281-1.644531,2.234375-3.828125,2.234375-6.546875c0-2.738281-.746094-4.925781-2.234375-6.5625-1.492187-1.632813-3.46875-2.453125-5.9375-2.453125-2.511719,0-4.511719.8125-6,2.4375-1.492187,1.617188-2.234375,3.808594-2.234375,6.578125c0,2.742187.742188,4.929687,2.234375,6.5625c1.488281,1.636719,3.488281,2.453125,6,2.453125Zm0,0" transform="translate(.000001 0)" fill="#222121"/></g></g></g><g><g transform="translate(212.828842 210.117371)"><g><path d="M10.296875,-5.828125h9.90625v5.828125h-17.46875v-31.03125h7.5625Zm0,0" fill="#222121"/></g></g></g><g><g transform="translate(232.803101 210.117371)"><g><path d="M10.296875,-5.828125h9.90625v5.828125h-17.46875v-31.03125h7.5625Zm0,0" fill="#222121"/></g></g></g><g><g transform="translate(252.777359 210.117371)"><g transform="translate(.000001 0)"><path d="M10.296875,-24.96875v6.265625h10.125v5.84375h-10.125v6.796875h11.453125v6.0625L2.734375,0v-31.03125h19.015625v6.0625Zm0,0" transform="translate(.000001 0)" fill="#222121"/></g></g></g><g><g transform="translate(275.579865 210.117371)"><g transform="translate(.000001 0.000001)"><path d="M23.34375,-21.21875c-.5625-1.03125-1.371094-1.816406-2.421875-2.359375-1.042969-.550781-2.273437-.828125-3.6875-.828125-2.4375,0-4.398437.808594-5.875,2.421875-1.46875,1.605469-2.203125,3.746094-2.203125,6.421875c0,2.867188.769531,5.101562,2.3125,6.703125c1.550781,1.605469,3.679688,2.40625,6.390625,2.40625c1.851563,0,3.421875-.46875,4.703125-1.40625c1.28125-.945313,2.21875-2.304687,2.8125-4.078125h-9.59375v-5.5625h16.4375v7.03125c-.554688,1.886719-1.5,3.640625-2.84375,5.265625-1.34375,1.617187-3.046875,2.921875-5.109375,3.921875s-4.390625,1.5-6.984375,1.5c-3.0625,0-5.796875-.664062-8.203125-2C6.679688,-3.125,4.8125,-4.988281,3.46875,-7.375C2.125,-9.769531,1.453125,-12.5,1.453125,-15.5625s.671875-5.789062,2.015625-8.1875c1.34375-2.40625,3.207031-4.28125,5.59375-5.625c2.382812-1.34375,5.109375-2.015625,8.171875-2.015625c3.71875,0,6.847656.902344,9.390625,2.703125c2.550781,1.804688,4.238281,4.292969,5.0625,7.46875Zm0,0" transform="translate(.000001 0.000001)" fill="#222121"/></g></g></g><g><g transform="translate(308.148651 210.117371)"><g transform="translate(.000001 0)"><path d="M10.296875,-24.96875v6.265625h10.125v5.84375h-10.125v6.796875h11.453125v6.0625L2.734375,0v-31.03125h19.015625v6.0625Zm0,0" transform="translate(.000001 0)" fill="#222121"/></g></g></g></g><g id="eXt43DGubm254" transform="translate(8.521182 0.000001)" opacity="0"><g><g transform="translate(61.240517 245.001129)"><g transform="translate(0 0.000001)"><path d="M5.21875,0h1.757812v-13.382812h5.007813v-1.570313h-11.773437v1.570313h5.007812Zm0,0" transform="translate(0 0.000001)" fill="#737373"/></g></g></g><g><g transform="translate(74.851524 245.001129)"><g transform="translate(0 0.000001)"><path d="M0.210938,0h1.890624l1.375-3.585938h7.214844L12.046875,0h1.867187L8.144531,-14.953125h-2.121093Zm3.777343-5.152344l3.074219-8.0625h.042969l3.054687,8.0625Zm0,0" transform="translate(0 0.000001)" fill="#737373"/></g></g></g><g><g transform="translate(90.391655 245.001129)"><g transform="translate(0 0.000001)"><path d="M1.273438,0h9.417968v-1.570312h-7.660156v-13.382813h-1.757812Zm0,0" transform="translate(0 0.000001)" fill="#737373"/></g></g></g><g><g transform="translate(102.709503 245.001129)"><g transform="translate(0 0.000001)"><path d="M1.273438,0h10.433593v-1.570312h-8.714843v-5.386719h7.65625v-1.527344h-7.65625v-4.898437h8.503906v-1.570313h-10.222656Zm0,0" transform="translate(0 0.000001)" fill="#737373"/></g></g></g><g><g transform="translate(116.3629 245.001129)"><g transform="translate(0 0.000001)"><path d="M1.273438,0h1.757812v-12.664062h.042969L10.753906,0h2.355469v-14.953125h-1.785156v12.683594h-.039063L3.625,-14.953125h-2.351562Zm0,0" transform="translate(0 0.000001)" fill="#737373"/></g></g></g><g><g transform="translate(132.157425 245.001129)"><g transform="translate(0 0.000001)"><path d="M5.21875,0h1.757812v-13.382812h5.007813v-1.570313h-11.773437v1.570313h5.007812Zm0,0" transform="translate(0 0.000001)" fill="#737373"/></g></g></g><g><g transform="translate(152.956055 245.001129)"><g transform="translate(0 0.000001)"><path d="M1.273438,0h1.757812v-12.386719h.042969L8.355469,0h1.867187l5.28125-12.40625h.042969v12.40625h1.761719v-14.953125h-2.546875L9.3125,-1.929688h-.023438L3.816406,-14.953125h-2.542968Zm0,0" transform="translate(0 0.000001)" fill="#737373"/></g></g></g><g><g transform="translate(172.948044 245.001129)"><g transform="translate(0 0.000001)"><path d="M0.210938,0h1.890624l1.375-3.585938h7.214844L12.046875,0h1.867187L8.144531,-14.953125h-2.121093Zm3.777343-5.152344l3.074219-8.0625h.042969l3.054687,8.0625Zm0,0" transform="translate(0 0.000001)" fill="#737373"/></g></g></g><g><g transform="translate(188.488174 245.001129)"><g transform="translate(0 0.000001)"><path d="M1.273438,0h1.757812v-12.664062h.042969L10.753906,0h2.355469v-14.953125h-1.785156v12.683594h-.039063L3.625,-14.953125h-2.351562Zm0,0" transform="translate(0 0.000001)" fill="#737373"/></g></g></g><g><g transform="translate(204.2827 245.001129)"><g transform="translate(0 0.000001)"><path d="M0.210938,0h1.890624l1.375-3.585938h7.214844L12.046875,0h1.867187L8.144531,-14.953125h-2.121093Zm3.777343-5.152344l3.074219-8.0625h.042969l3.054687,8.0625Zm0,0" transform="translate(0 0.000001)" fill="#737373"/></g></g></g><g><g transform="translate(219.822845 245.001129)"><g transform="translate(0 0.000001)"><path d="M8.527344,0.53125c2.671875,0,4.878906-1.292969,6.171875-3.414062h.019531L14.890625,0L16.375,0v-8.25h-10.117188v1.570312h8.3125c0,3.222657-2.609374,5.640626-5.894531,5.640626-3.585937,0-6.171875-2.714844-6.171875-6.425782c0-3.777344,2.460938-6.449218,5.894532-6.449218c2.226562,0,4.179687,1.441406,4.878906,3.480468l1.632812-.53125c-.890625-2.628906-3.519531-4.519531-6.488281-4.519531-4.457031,0-7.679687,3.375-7.679687,8.019531c0,4.621094,3.265624,7.996094,7.785156,7.996094Zm0,0" transform="translate(0 0.000001)" fill="#737373"/></g></g></g><g><g transform="translate(238.458084 245.001129)"><g transform="translate(0 0.000001)"><path d="M1.273438,0h10.433593v-1.570312h-8.714843v-5.386719h7.65625v-1.527344h-7.65625v-4.898437h8.503906v-1.570313h-10.222656Zm0,0" transform="translate(0 0.000001)" fill="#737373"/></g></g></g><g><g transform="translate(252.111481 245.001129)"><g transform="translate(0 0.000001)"><path d="M1.273438,0h1.757812v-12.386719h.042969L8.355469,0h1.867187l5.28125-12.40625h.042969v12.40625h1.761719v-14.953125h-2.546875L9.3125,-1.929688h-.023438L3.816406,-14.953125h-2.542968Zm0,0" transform="translate(0 0.000001)" fill="#737373"/></g></g></g><g><g transform="translate(272.103455 245.001129)"><g transform="translate(0 0.000001)"><path d="M1.273438,0h10.433593v-1.570312h-8.714843v-5.386719h7.65625v-1.527344h-7.65625v-4.898437h8.503906v-1.570313h-10.222656Zm0,0" transform="translate(0 0.000001)" fill="#737373"/></g></g></g><g><g transform="translate(285.756866 245.001129)"><g transform="translate(0 0.000001)"><path d="M1.273438,0h1.757812v-12.664062h.042969L10.753906,0h2.355469v-14.953125h-1.785156v12.683594h-.039063L3.625,-14.953125h-2.351562Zm0,0" transform="translate(0 0.000001)" fill="#737373"/></g></g></g><g><g transform="translate(301.551361 245.001129)"><g transform="translate(0 0.000001)"><path d="M5.21875,0h1.757812v-13.382812h5.007813v-1.570313h-11.773437v1.570313h5.007812Zm0,0" transform="translate(0 0.000001)" fill="#737373"/></g></g></g></g>
<script><![CDATA[
!function(t,n){"object"==typeof exports&&"undefined"!=typeof module?module.exports=n():"function"==typeof __SVGATOR_DEFINE__&&__SVGATOR_DEFINE__.amd?__SVGATOR_DEFINE__(n):((t="undefined"!=typeof globalThis?globalThis:t||self).__SVGATOR_PLAYER__=t.__SVGATOR_PLAYER__||{},t.__SVGATOR_PLAYER__["5c7f360c"]=n())}(this,(function(){"use strict";function t(t,n){var e=Object.keys(t);if(Object.getOwnPropertySymbols){var r=Object.getOwnPropertySymbols(t);n&&(r=r.filter((function(n){return Object.getOwnPropertyDescriptor(t,n).enumerable}))),e.push.apply(e,r)}return e}function n(n){for(var e=1;e<arguments.length;e++){var r=null!=arguments[e]?arguments[e]:{};e%2?t(Object(r),!0).forEach((function(t){o(n,t,r[t])})):Object.getOwnPropertyDescriptors?Object.defineProperties(n,Object.getOwnPropertyDescriptors(r)):t(Object(r)).forEach((function(t){Object.defineProperty(n,t,Object.getOwnPropertyDescriptor(r,t))}))}return n}function e(t){return(e="function"==typeof Symbol&&"symbol"==typeof Symbol.iterator?function(t){return typeof t}:function(t){return t&&"function"==typeof Symbol&&t.constructor===Symbol&&t!==Symbol.prototype?"symbol":typeof t})(t)}function r(t,n){if(!(t instanceof n))throw new TypeError("Cannot call a class as a function")}function i(t,n){for(var e=0;e<n.length;e++){var r=n[e];r.enumerable=r.enumerable||!1,r.configurable=!0,"value"in r&&(r.writable=!0),Object.defineProperty(t,r.key,r)}}function u(t,n,e){return n&&i(t.prototype,n),e&&i(t,e),t}function o(t,n,e){return n in t?Object.defineProperty(t,n,{value:e,enumerable:!0,configurable:!0,writable:!0}):t[n]=e,t}function a(t){return(a=Object.setPrototypeOf?Object.getPrototypeOf:function(t){return t.__proto__||Object.getPrototypeOf(t)})(t)}function l(t,n){return(l=Object.setPrototypeOf||function(t,n){return t.__proto__=n,t})(t,n)}function s(){if("undefined"==typeof Reflect||!Reflect.construct)return!1;if(Reflect.construct.sham)return!1;if("function"==typeof Proxy)return!0;try{return Boolean.prototype.valueOf.call(Reflect.construct(Boolean,[],(function(){}))),!0}catch(t){return!1}}function f(t,n,e){return(f=s()?Reflect.construct:function(t,n,e){var r=[null];r.push.apply(r,n);var i=new(Function.bind.apply(t,r));return e&&l(i,e.prototype),i}).apply(null,arguments)}function c(t,n){if(n&&("object"==typeof n||"function"==typeof n))return n;if(void 0!==n)throw new TypeError("Derived constructors may only return object or undefined");return function(t){if(void 0===t)throw new ReferenceError("this hasn't been initialised - super() hasn't been called");return t}(t)}function h(t,n,e){return(h="undefined"!=typeof Reflect&&Reflect.get?Reflect.get:function(t,n,e){var r=function(t,n){for(;!Object.prototype.hasOwnProperty.call(t,n)&&null!==(t=a(t)););return t}(t,n);if(r){var i=Object.getOwnPropertyDescriptor(r,n);return i.get?i.get.call(e):i.value}})(t,n,e||t)}function v(t){return function(t){if(Array.isArray(t))return y(t)}(t)||function(t){if("undefined"!=typeof Symbol&&null!=t[Symbol.iterator]||null!=t["@@iterator"])return Array.from(t)}(t)||function(t,n){if(!t)return;if("string"==typeof t)return y(t,n);var e=Object.prototype.toString.call(t).slice(8,-1);"Object"===e&&t.constructor&&(e=t.constructor.name);if("Map"===e||"Set"===e)return Array.from(t);if("Arguments"===e||/^(?:Ui|I)nt(?:8|16|32)(?:Clamped)?Array$/.test(e))return y(t,n)}(t)||function(){throw new TypeError("Invalid attempt to spread non-iterable instance.\nIn order to be iterable, non-array objects must have a [Symbol.iterator]() method.")}()}function y(t,n){(null==n||n>t.length)&&(n=t.length);for(var e=0,r=new Array(n);e<n;e++)r[e]=t[e];return r}Number.isInteger||(Number.isInteger=function(t){return"number"==typeof t&&isFinite(t)&&Math.floor(t)===t}),Number.EPSILON||(Number.EPSILON=2220446049250313e-31);var g=d(Math.pow(10,-6));function d(t){var n=arguments.length>1&&void 0!==arguments[1]?arguments[1]:6;if(Number.isInteger(t))return t;var e=Math.pow(10,n);return Math.round((+t+Number.EPSILON)*e)/e}function p(t,n){var e=arguments.length>2&&void 0!==arguments[2]?arguments[2]:g;return Math.abs(t-n)<e}var m=Math.PI/180;function b(t){return t}function w(t,n,e){var r=1-e;return 3*e*r*(t*r+n*e)+e*e*e}function A(){var t=arguments.length>0&&void 0!==arguments[0]?arguments[0]:0,n=arguments.length>1&&void 0!==arguments[1]?arguments[1]:0,e=arguments.length>2&&void 0!==arguments[2]?arguments[2]:1,r=arguments.length>3&&void 0!==arguments[3]?arguments[3]:1;return t<0||t>1||e<0||e>1?null:p(t,n)&&p(e,r)?b:function(i){if(i<=0)return t>0?i*n/t:0===n&&e>0?i*r/e:0;if(i>=1)return e<1?1+(i-1)*(r-1)/(e-1):1===e&&t<1?1+(i-1)*(n-1)/(t-1):1;for(var u,o=0,a=1;o<a;){var l=w(t,e,u=(o+a)/2);if(p(i,l))break;l<i?o=u:a=u}return w(n,r,u)}}function _(){return 1}function x(t){return 1===t?1:0}function k(){var t=arguments.length>0&&void 0!==arguments[0]?arguments[0]:1,n=arguments.length>1&&void 0!==arguments[1]?arguments[1]:0;if(1===t){if(0===n)return x;if(1===n)return _}var e=1/t;return function(t){return t>=1?1:(t+=n*e)-t%e}}var S=Math.sin,O=Math.cos,j=Math.acos,E=Math.asin,M=Math.tan,P=Math.atan2,I=Math.PI/180,R=180/Math.PI,F=Math.sqrt,N=function(){function t(){var n=arguments.length>0&&void 0!==arguments[0]?arguments[0]:1,e=arguments.length>1&&void 0!==arguments[1]?arguments[1]:0,i=arguments.length>2&&void 0!==arguments[2]?arguments[2]:0,u=arguments.length>3&&void 0!==arguments[3]?arguments[3]:1,o=arguments.length>4&&void 0!==arguments[4]?arguments[4]:0,a=arguments.length>5&&void 0!==arguments[5]?arguments[5]:0;r(this,t),this.m=[n,e,i,u,o,a],this.i=null,this.w=null,this.s=null}return u(t,[{key:"determinant",get:function(){var t=this.m;return t[0]*t[3]-t[1]*t[2]}},{key:"isIdentity",get:function(){if(null===this.i){var t=this.m;this.i=1===t[0]&&0===t[1]&&0===t[2]&&1===t[3]&&0===t[4]&&0===t[5]}return this.i}},{key:"point",value:function(t,n){var e=this.m;return{x:e[0]*t+e[2]*n+e[4],y:e[1]*t+e[3]*n+e[5]}}},{key:"translateSelf",value:function(){var t=arguments.length>0&&void 0!==arguments[0]?arguments[0]:0,n=arguments.length>1&&void 0!==arguments[1]?arguments[1]:0;if(!t&&!n)return this;var e=this.m;return e[4]+=e[0]*t+e[2]*n,e[5]+=e[1]*t+e[3]*n,this.w=this.s=this.i=null,this}},{key:"rotateSelf",value:function(){var t=arguments.length>0&&void 0!==arguments[0]?arguments[0]:0;if(t%=360){var n=S(t*=I),e=O(t),r=this.m,i=r[0],u=r[1];r[0]=i*e+r[2]*n,r[1]=u*e+r[3]*n,r[2]=r[2]*e-i*n,r[3]=r[3]*e-u*n,this.w=this.s=this.i=null}return this}},{key:"scaleSelf",value:function(){var t=arguments.length>0&&void 0!==arguments[0]?arguments[0]:1,n=arguments.length>1&&void 0!==arguments[1]?arguments[1]:1;if(1!==t||1!==n){var e=this.m;e[0]*=t,e[1]*=t,e[2]*=n,e[3]*=n,this.w=this.s=this.i=null}return this}},{key:"skewSelf",value:function(t,n){if(n%=360,(t%=360)||n){var e=this.m,r=e[0],i=e[1],u=e[2],o=e[3];t&&(t=M(t*I),e[2]+=r*t,e[3]+=i*t),n&&(n=M(n*I),e[0]+=u*n,e[1]+=o*n),this.w=this.s=this.i=null}return this}},{key:"resetSelf",value:function(){var t=arguments.length>0&&void 0!==arguments[0]?arguments[0]:1,n=arguments.length>1&&void 0!==arguments[1]?arguments[1]:0,e=arguments.length>2&&void 0!==arguments[2]?arguments[2]:0,r=arguments.length>3&&void 0!==arguments[3]?arguments[3]:1,i=arguments.length>4&&void 0!==arguments[4]?arguments[4]:0,u=arguments.length>5&&void 0!==arguments[5]?arguments[5]:0,o=this.m;return o[0]=t,o[1]=n,o[2]=e,o[3]=r,o[4]=i,o[5]=u,this.w=this.s=this.i=null,this}},{key:"recomposeSelf",value:function(){var t=arguments.length>0&&void 0!==arguments[0]?arguments[0]:null,n=arguments.length>1&&void 0!==arguments[1]?arguments[1]:null,e=arguments.length>2&&void 0!==arguments[2]?arguments[2]:null,r=arguments.length>3&&void 0!==arguments[3]?arguments[3]:null,i=arguments.length>4&&void 0!==arguments[4]?arguments[4]:null;return this.isIdentity||this.resetSelf(),t&&(t.x||t.y)&&this.translateSelf(t.x,t.y),n&&this.rotateSelf(n),e&&(e.x&&this.skewSelf(e.x,0),e.y&&this.skewSelf(0,e.y)),!r||1===r.x&&1===r.y||this.scaleSelf(r.x,r.y),i&&(i.x||i.y)&&this.translateSelf(i.x,i.y),this}},{key:"decompose",value:function(){var t=arguments.length>0&&void 0!==arguments[0]?arguments[0]:0,n=arguments.length>1&&void 0!==arguments[1]?arguments[1]:0,e=this.m,r=e[0]*e[0]+e[1]*e[1],i=[[e[0],e[1]],[e[2],e[3]]],u=F(r);if(0===u)return{origin:{x:d(e[4]),y:d(e[5])},translate:{x:d(t),y:d(n)},scale:{x:0,y:0},skew:{x:0,y:0},rotate:0};i[0][0]/=u,i[0][1]/=u;var o=e[0]*e[3]-e[1]*e[2]<0;o&&(u=-u);var a=i[0][0]*i[1][0]+i[0][1]*i[1][1];i[1][0]-=i[0][0]*a,i[1][1]-=i[0][1]*a;var l=F(i[1][0]*i[1][0]+i[1][1]*i[1][1]);if(0===l)return{origin:{x:d(e[4]),y:d(e[5])},translate:{x:d(t),y:d(n)},scale:{x:d(u),y:0},skew:{x:0,y:0},rotate:0};i[1][0]/=l,i[1][1]/=l,a/=l;var s=0;return i[1][1]<0?(s=j(i[1][1])*R,i[0][1]<0&&(s=360-s)):s=E(i[0][1])*R,o&&(s=-s),a=P(a,F(i[0][0]*i[0][0]+i[0][1]*i[0][1]))*R,o&&(a=-a),{origin:{x:d(e[4]),y:d(e[5])},translate:{x:d(t),y:d(n)},scale:{x:d(u),y:d(l)},skew:{x:d(a),y:0},rotate:d(s)}}},{key:"clone",value:function(){var t=this.m;return new this.constructor(t[0],t[1],t[2],t[3],t[4],t[5])}},{key:"toString",value:function(){var t=arguments.length>0&&void 0!==arguments[0]?arguments[0]:" ";if(null===this.s){var n=this.m.map((function(t){return d(t)}));1===n[0]&&0===n[1]&&0===n[2]&&1===n[3]?this.s="translate("+n[4]+t+n[5]+")":this.s="matrix("+n.join(t)+")"}return this.s}}],[{key:"create",value:function(t){return t?Array.isArray(t)?f(this,v(t)):t instanceof this?t.clone():(new this).recomposeSelf(t.origin,t.rotate,t.skew,t.scale,t.translate):new this}}]),t}();function T(t,n,e){return t>=.5?e:n}function B(t,n,e){return 0===t||n===e?n:t*(e-n)+n}function q(t,n,e){var r=B(t,n,e);return r<=0?0:r}function D(t,n,e){var r=B(t,n,e);return r<=0?0:r>=1?1:r}function L(t,n,e){return 0===t?n:1===t?e:{x:B(t,n.x,e.x),y:B(t,n.y,e.y)}}function C(t,n,e){var r=function(t,n,e){return Math.round(B(t,n,e))}(t,n,e);return r<=0?0:r>=255?255:r}function V(t,n,e){return 0===t?n:1===t?e:{r:C(t,n.r,e.r),g:C(t,n.g,e.g),b:C(t,n.b,e.b),a:B(t,null==n.a?1:n.a,null==e.a?1:e.a)}}function G(t,n){for(var e=[],r=0;r<t;r++)e.push(n);return e}function z(t,n){if(--n<=0)return t;var e=(t=Object.assign([],t)).length;do{for(var r=0;r<e;r++)t.push(t[r])}while(--n>0);return t}var Y,$=function(){function t(n){r(this,t),this.list=n,this.length=n.length}return u(t,[{key:"setAttribute",value:function(t,n){for(var e=this.list,r=0;r<this.length;r++)e[r].setAttribute(t,n)}},{key:"removeAttribute",value:function(t){for(var n=this.list,e=0;e<this.length;e++)n[e].removeAttribute(t)}},{key:"style",value:function(t,n){for(var e=this.list,r=0;r<this.length;r++)e[r].style[t]=n}}]),t}(),U=/-./g,Q=function(t,n){return n.toUpperCase()};function H(t){return"function"==typeof t?t:T}function J(t){return t?"function"==typeof t?t:Array.isArray(t)?function(t){var n=arguments.length>1&&void 0!==arguments[1]?arguments[1]:b;if(!Array.isArray(t))return n;switch(t.length){case 1:return k(t[0])||n;case 2:return k(t[0],t[1])||n;case 4:return A(t[0],t[1],t[2],t[3])||n}return n}(t,null):function(t,n){var e=arguments.length>2&&void 0!==arguments[2]?arguments[2]:b;switch(t){case"linear":return b;case"steps":return k(n.steps||1,n.jump||0)||e;case"bezier":case"cubic-bezier":return A(n.x1||0,n.y1||0,n.x2||0,n.y2||0)||e}return e}(t.type,t.value,null):null}function Z(t,n,e){var r=arguments.length>3&&void 0!==arguments[3]&&arguments[3],i=n.length-1;if(t<=n[0].t)return r?[0,0,n[0].v]:n[0].v;if(t>=n[i].t)return r?[i,1,n[i].v]:n[i].v;var u,o=n[0],a=null;for(u=1;u<=i;u++){if(!(t>n[u].t)){a=n[u];break}o=n[u]}return null==a?r?[i,1,n[i].v]:n[i].v:o.t===a.t?r?[u,1,a.v]:a.v:(t=(t-o.t)/(a.t-o.t),o.e&&(t=o.e(t)),r?[u,t,e(t,o.v,a.v)]:e(t,o.v,a.v))}function K(t,n){var e=arguments.length>2&&void 0!==arguments[2]?arguments[2]:null;return t&&t.length?"function"!=typeof n?null:("function"!=typeof e&&(e=null),function(r){var i=Z(r,t,n);return null!=i&&e&&(i=e(i)),i}):null}function W(t,n){return t.t-n.t}function X(t,n,r,i,u){var o,a="@"===r[0],l="#"===r[0],s=Y[r],f=T;switch(a?(o=r.substr(1),r=o.replace(U,Q)):l&&(r=r.substr(1)),e(s)){case"function":if(f=s(i,u,Z,J,r,a,n,t),l)return f;break;case"string":f=K(i,H(s));break;case"object":if((f=K(i,H(s.i),s.f))&&"function"==typeof s.u)return s.u(n,f,r,a,t)}return f?function(t,n,e){if(arguments.length>3&&void 0!==arguments[3]&&arguments[3])return t instanceof $?function(r){return t.style(n,e(r))}:function(r){return t.style[n]=e(r)};if(Array.isArray(n)){var r=n.length;return function(i){var u=e(i);if(null==u)for(var o=0;o<r;o++)t[o].removeAttribute(n);else for(var a=0;a<r;a++)t[a].setAttribute(n,u)}}return function(r){var i=e(r);null==i?t.removeAttribute(n):t.setAttribute(n,i)}}(n,r,f,a):null}function tt(t,n,r,i){if(!i||"object"!==e(i))return null;var u=null,o=null;return Array.isArray(i)?o=function(t){if(!t||!t.length)return null;for(var n=0;n<t.length;n++)t[n].e&&(t[n].e=J(t[n].e));return t.sort(W)}(i):(o=i.keys,u=i.data||null),o?X(t,n,r,o,u):null}function nt(t,n,e){if(!e)return null;var r=[];for(var i in e)if(e.hasOwnProperty(i)){var u=tt(t,n,i,e[i]);u&&r.push(u)}return r.length?r:null}function et(t,n){if(!n.settings.duration||n.settings.duration<0)return null;var e,r,i,u,o,a=function(t,n){if(!n)return null;var e=[];if(Array.isArray(n))for(var r=n.length,i=0;i<r;i++){var u=n[i];if(2===u.length){var o=null;if("string"==typeof u[0])o=t.getElementById(u[0]);else if(Array.isArray(u[0])){o=[];for(var a=0;a<u[0].length;a++)if("string"==typeof u[0][a]){var l=t.getElementById(u[0][a]);l&&o.push(l)}o=o.length?1===o.length?o[0]:new $(o):null}if(o){var s=nt(t,o,u[1]);s&&(e=e.concat(s))}}}else for(var f in n)if(n.hasOwnProperty(f)){var c=t.getElementById(f);if(c){var h=nt(t,c,n[f]);h&&(e=e.concat(h))}}return e.length?e:null}(t,n.elements);return a?(e=a,r=n.settings,i=r.duration,u=e.length,o=null,function(t,n){var a=r.iterations||1/0,l=(r.alternate&&a%2==0)^r.direction>0?i:0,s=t%i,f=1+(t-s)/i;n*=r.direction,r.alternate&&f%2==0&&(n=-n);var c=!1;if(f>a)s=l,c=!0,-1===r.fill&&(s=r.direction>0?0:i);else if(n<0&&(s=i-s),s===o)return!1;o=s;for(var h=0;h<u;h++)e[h](s);return c}):null}function rt(t,n){if(Y=n,!t||!t.root||!Array.isArray(t.animations))return null;var e=function(t){for(var n=document.getElementsByTagName("svg"),e=0;e<n.length;e++)if(n[e].id===t.root&&!n[e].svgatorAnimation)return n[e].svgatorAnimation=!0,n[e];return null}(t);if(!e)return null;var r=t.animations.map((function(t){return et(e,t)})).filter((function(t){return!!t}));return r.length?{svg:e,animations:r,animationSettings:t.animationSettings,options:t.options||void 0}:null}function it(t){var n=arguments.length>1&&void 0!==arguments[1]?arguments[1]:null,e=arguments.length>2&&void 0!==arguments[2]?arguments[2]:Number,r=arguments.length>3&&void 0!==arguments[3]?arguments[3]:"undefined"!=typeof BigInt&&BigInt,i="0x"+(t.replace(/[^0-9a-fA-F]+/g,"")||27);return n&&r&&e.isSafeInteger&&!e.isSafeInteger(+i)?e(r(i))%n+n:+i}function ut(t,n,e){return!t||!e||n>t.length?t:t.substring(0,n)+ut(t.substring(n+1),e,e)}function ot(t){var n=arguments.length>1&&void 0!==arguments[1]?arguments[1]:27;return!t||t%n?t%n:[0,1].includes(n)?n:ot(t/n,n)}function at(t,n,e){if(t&&t.length){var r=it(e),i=ot(r)+5,u=ut(t,ot(r,5),i);return u=u.replace(/\x7c$/g,"==").replace(/\x2f$/g,"="),u=function(t,n,e){var r=+("0x"+t.substring(0,4));t=t.substring(4);for(var i=it(n,r)%r+e%27,u=[],o=0;o<t.length;o+=2)if("|"!==t[o]){var a=+("0x"+t[o]+t[o+1])-i;u.push(a)}else{var l=+("0x"+t.substring(o+1,o+1+4))-i;o+=3,u.push(l)}return String.fromCharCode.apply(String,u)}(u=(u=atob(u)).replace(/[\x41-\x5A]/g,""),n,r),u=JSON.parse(u)}}var lt=[{key:"alternate",def:!1},{key:"fill",def:1},{key:"iterations",def:0},{key:"direction",def:1},{key:"speed",def:1},{key:"fps",def:100}],st=function(){function t(n,e){var i=this,u=arguments.length>2&&void 0!==arguments[2]?arguments[2]:null;r(this,t),this._id=0,this._running=!1,this._rollingBack=!1,this._animations=n,this._settings=e,(!u||u<"2022-05-02")&&delete this._settings.speed,lt.forEach((function(t){i._settings[t.key]=i._settings[t.key]||t.def})),this.duration=e.duration,this.offset=e.offset||0,this.rollbackStartOffset=0}return u(t,[{key:"alternate",get:function(){return this._settings.alternate}},{key:"fill",get:function(){return this._settings.fill}},{key:"iterations",get:function(){return this._settings.iterations}},{key:"direction",get:function(){return this._settings.direction}},{key:"speed",get:function(){return this._settings.speed}},{key:"fps",get:function(){return this._settings.fps}},{key:"maxFiniteDuration",get:function(){return this.iterations>0?this.iterations*this.duration:this.duration}},{key:"_apply",value:function(t){for(var n=arguments.length>1&&void 0!==arguments[1]?arguments[1]:{},e=this._animations,r=e.length,i=0,u=0;u<r;u++)n[u]?i++:(n[u]=e[u](t,1),n[u]&&i++);return i}},{key:"_rollback",value:function(t){var n=this,e=1/0,r=null;this.rollbackStartOffset=t,this._rollingBack=!0,this._running=!0;this._id=window.requestAnimationFrame((function i(u){if(n._rollingBack){null==r&&(r=u);var o=Math.round(t-(u-r)*n.speed);if(o>n.duration&&e!==1/0){var a=!!n.alternate&&o/n.duration%2>1,l=o%n.duration;o=(l+=a?n.duration:0)||n.duration}var s=(n.fps?1e3/n.fps:0)*n.speed,f=Math.max(0,o);f<=e-s&&(n.offset=f,e=f,n._apply(f));var c=n.iterations>0&&-1===n.fill&&o>=n.maxFiniteDuration;(o<=0||n.offset<o||c)&&n.stop(),n._id=window.requestAnimationFrame(i)}}))}},{key:"_start",value:function(){var t=this,n=arguments.length>0&&void 0!==arguments[0]?arguments[0]:0,e=-1/0,r=null,i={};this._running=!0;var u=function u(o){null==r&&(r=o);var a=Math.round((o-r)*t.speed+n),l=(t.fps?1e3/t.fps:0)*t.speed;if(a>=e+l&&!t._rollingBack&&(t.offset=a,e=a,t._apply(a,i)===t._animations.length))return void t.pause(!0);t._id=window.requestAnimationFrame(u)};this._id=window.requestAnimationFrame(u)}},{key:"_pause",value:function(){this._id&&window.cancelAnimationFrame(this._id),this._running=!1}},{key:"play",value:function(){if(!this._running)return this._rollingBack?this._rollback(this.offset):this._start(this.offset)}},{key:"stop",value:function(){this._pause(),this.offset=0,this.rollbackStartOffset=0,this._rollingBack=!1,this._apply(0)}},{key:"reachedToEnd",value:function(){return this.iterations>0&&this.offset>=this.iterations*this.duration}},{key:"restart",value:function(){var t=arguments.length>0&&void 0!==arguments[0]&&arguments[0];this.stop(t),this.play(t)}},{key:"pause",value:function(){this._pause()}},{key:"reverse",value:function(){this.direction=-this.direction}}],[{key:"build",value:function(t,n){delete t.animationSettings,t.options=at(t.options,t.root,"5c7f360c"),t.animations.map((function(n){n.settings=at(n.s,t.root,"5c7f360c"),delete n.s,t.animationSettings||(t.animationSettings=n.settings)}));var e=t.version;if(!(t=rt(t,n)))return null;var r=t.options||{},i=new this(t.animations,t.animationSettings,e);return{el:t.svg,options:r,player:i}}},{key:"push",value:function(t){return this.build(t)}},{key:"init",value:function(){var t=this,n=window.__SVGATOR_PLAYER__&&window.__SVGATOR_PLAYER__["5c7f360c"];Array.isArray(n)&&n.splice(0).forEach((function(n){return t.build(n)}))}}]),t}();function ft(t){return d(t)+""}function ct(t){var n=arguments.length>1&&void 0!==arguments[1]?arguments[1]:" ";return t&&t.length?t.map(ft).join(n):""}function ht(t){if(!t)return"transparent";if(null==t.a||t.a>=1){var n=function(t){return 1===(t=parseInt(t).toString(16)).length?"0"+t:t},e=function(t){return t.charAt(0)===t.charAt(1)},r=n(t.r),i=n(t.g),u=n(t.b);return e(r)&&e(i)&&e(u)&&(r=r.charAt(0),i=i.charAt(0),u=u.charAt(0)),"#"+r+i+u}return"rgba("+t.r+","+t.g+","+t.b+","+t.a+")"}function vt(t){return t?"url(#"+t+")":"none"}!function(){for(var t=0,n=["ms","moz","webkit","o"],e=0;e<n.length&&!window.requestAnimationFrame;++e)window.requestAnimationFrame=window[n[e]+"RequestAnimationFrame"],window.cancelAnimationFrame=window[n[e]+"CancelAnimationFrame"]||window[n[e]+"CancelRequestAnimationFrame"];window.requestAnimationFrame||(window.requestAnimationFrame=function(n){var e=Date.now(),r=Math.max(0,16-(e-t)),i=window.setTimeout((function(){n(e+r)}),r);return t=e+r,i},window.cancelAnimationFrame=window.clearTimeout)}();var yt={f:null,i:function(t,n,e){return 0===t?n:1===t?e:{x:q(t,n.x,e.x),y:q(t,n.y,e.y)}},u:function(t,n){return function(e){var r=n(e);t.setAttribute("rx",ft(r.x)),t.setAttribute("ry",ft(r.y))}}},gt={f:null,i:function(t,n,e){return 0===t?n:1===t?e:{width:q(t,n.width,e.width),height:q(t,n.height,e.height)}},u:function(t,n){return function(e){var r=n(e);t.setAttribute("width",ft(r.width)),t.setAttribute("height",ft(r.height))}}};Object.freeze({M:2,L:2,Z:0,H:1,V:1,C:6,Q:4,T:2,S:4,A:7});var dt={},pt=null;function mt(t){var n=function(){if(pt)return pt;if("object"!==("undefined"==typeof document?"undefined":e(document))||!document.createElementNS)return{};var t=document.createElementNS("http://www.w3.org/2000/svg","svg");return t&&t.style?(t.style.position="absolute",t.style.opacity="0.01",t.style.zIndex="-9999",t.style.left="-9999px",t.style.width="1px",t.style.height="1px",pt={svg:t}):{}}().svg;if(!n)return function(t){return null};var r=document.createElementNS(n.namespaceURI,"path");r.setAttributeNS(null,"d",t),r.setAttributeNS(null,"fill","none"),r.setAttributeNS(null,"stroke","none"),n.appendChild(r);var i=r.getTotalLength();return function(t){var n=r.getPointAtLength(i*t);return{x:n.x,y:n.y}}}function bt(t){return dt[t]?dt[t]:dt[t]=mt(t)}function wt(t,n,e,r){if(!t||!r)return!1;var i=["M",t.x,t.y];if(n&&e&&(i.push("C"),i.push(n.x),i.push(n.y),i.push(e.x),i.push(e.y)),n?!e:e){var u=n||e;i.push("Q"),i.push(u.x),i.push(u.y)}return n||e||i.push("L"),i.push(r.x),i.push(r.y),i.join(" ")}function At(t,n,e,r){var i=arguments.length>4&&void 0!==arguments[4]?arguments[4]:1,u=wt(t,n,e,r),o=bt(u);try{return o(i)}catch(t){return null}}function _t(t,n,e){return t+(n-t)*e}function xt(t,n,e){var r=arguments.length>3&&void 0!==arguments[3]&&arguments[3],i={x:_t(t.x,n.x,e),y:_t(t.y,n.y,e)};return r&&(i.a=kt(t,n)),i}function kt(t,n){return Math.atan2(n.y-t.y,n.x-t.x)}function St(t,n,e,r){var i=1-r;return i*i*t+2*i*r*n+r*r*e}function Ot(t,n,e,r){return 2*(1-r)*(n-t)+2*r*(e-n)}function jt(t,n,e,r){var i=arguments.length>4&&void 0!==arguments[4]&&arguments[4],u=At(t,n,null,e,r);return u||(u={x:St(t.x,n.x,e.x,r),y:St(t.y,n.y,e.y,r)}),i&&(u.a=Et(t,n,e,r)),u}function Et(t,n,e,r){return Math.atan2(Ot(t.y,n.y,e.y,r),Ot(t.x,n.x,e.x,r))}function Mt(t,n,e,r,i){var u=i*i;return i*u*(r-t+3*(n-e))+3*u*(t+e-2*n)+3*i*(n-t)+t}function Pt(t,n,e,r,i){var u=1-i;return 3*(u*u*(n-t)+2*u*i*(e-n)+i*i*(r-e))}function It(t,n,e,r,i){var u=arguments.length>5&&void 0!==arguments[5]&&arguments[5],o=At(t,n,e,r,i);return o||(o={x:Mt(t.x,n.x,e.x,r.x,i),y:Mt(t.y,n.y,e.y,r.y,i)}),u&&(o.a=Rt(t,n,e,r,i)),o}function Rt(t,n,e,r,i){return Math.atan2(Pt(t.y,n.y,e.y,r.y,i),Pt(t.x,n.x,e.x,r.x,i))}function Ft(t,n,e){var r=arguments.length>3&&void 0!==arguments[3]&&arguments[3];if(Tt(n)){if(Bt(e))return jt(n,e.start,e,t,r)}else if(Tt(e)){if(qt(n))return jt(n,n.end,e,t,r)}else{if(qt(n))return Bt(e)?It(n,n.end,e.start,e,t,r):jt(n,n.end,e,t,r);if(Bt(e))return jt(n,e.start,e,t,r)}return xt(n,e,t,r)}function Nt(t,n,e){var r=Ft(t,n,e,!0);return r.a=function(t){return arguments.length>1&&void 0!==arguments[1]&&arguments[1]?t+Math.PI:t}(r.a)/m,r}function Tt(t){return!t.type||"corner"===t.type}function Bt(t){return null!=t.start&&!Tt(t)}function qt(t){return null!=t.end&&!Tt(t)}var Dt=new N;var Lt={f:ft,i:B},Ct={f:ft,i:D};function Vt(t,n,e){return t.map((function(t){return function(t,n,e){var r=t.v;if(!r||"g"!==r.t||r.s||!r.v||!r.r)return t;var i=e.getElementById(r.r),u=i&&i.querySelectorAll("stop")||[];return r.s=r.v.map((function(t,n){var e=u[n]&&u[n].getAttribute("offset");return{c:t,o:e=d(parseInt(e)/100)}})),delete r.v,t}(t,0,e)}))}var Gt={gt:"gradientTransform",c:{x:"cx",y:"cy"},rd:"r",f:{x:"x1",y:"y1"},to:{x:"x2",y:"y2"}};function zt(t,n,r,i,u,o,a,l){return Vt(t,0,l),n=function(t,n,e){for(var r,i,u,o=t.length-1,a={},l=0;l<=o;l++)(r=t[l]).e&&(r.e=n(r.e)),r.v&&"g"===(i=r.v).t&&i.r&&(u=e.getElementById(i.r))&&(a[i.r]={e:u,s:u.querySelectorAll("stop")});return a}(t,i,l),function(i){var u=r(i,t,Yt);if(!u)return"none";if("c"===u.t)return ht(u.v);if("g"===u.t){if(!n[u.r])return vt(u.r);var o=n[u.r];return function(t,n){for(var e=t.s,r=e.length;r<n.length;r++){var i=e[e.length-1].cloneNode();i.id=Qt(i.id),t.e.appendChild(i),e=t.s=t.e.querySelectorAll("stop")}for(var u=0,o=e.length,a=n.length-1;u<o;u++)e[u].setAttribute("stop-color",ht(n[Math.min(u,a)].c)),e[u].setAttribute("offset",n[Math.min(u,a)].o)}(o,u.s),Object.keys(Gt).forEach((function(t){if(void 0!==u[t])if("object"!==e(Gt[t])){var n,r="gt"===t?(n=u[t],Array.isArray(n)?"matrix("+n.join(" ")+")":""):u[t],i=Gt[t];o.e.setAttribute(i,r)}else Object.keys(Gt[t]).forEach((function(n){if(void 0!==u[t][n]){var e=u[t][n],r=Gt[t][n];o.e.setAttribute(r,e)}}))})),vt(u.r)}return"none"}}function Yt(t,e,r){if(0===t)return e;if(1===t)return r;if(e&&r){var i=e.t;if(i===r.t)switch(e.t){case"c":return{t:i,v:V(t,e.v,r.v)};case"g":if(e.r===r.r){var u={t:i,s:$t(t,e.s,r.s),r:e.r};return e.gt&&r.gt&&(u.gt=function(t,n,e){var r=n.length;if(r!==e.length)return T(t,n,e);for(var i=new Array(r),u=0;u<r;u++)i[u]=B(t,n[u],e[u]);return i}(t,e.gt,r.gt)),e.c?(u.c=L(t,e.c,r.c),u.rd=q(t,e.rd,r.rd)):e.f&&(u.f=L(t,e.f,r.f),u.to=L(t,e.to,r.to)),u}}if("c"===e.t&&"g"===r.t||"c"===r.t&&"g"===e.t){var o="c"===e.t?e:r,a="g"===e.t?n({},e):n({},r),l=a.s.map((function(t){return{c:o.v,o:t.o}}));return a.s="c"===e.t?$t(t,l,a.s):$t(t,a.s,l),a}}return T(t,e,r)}function $t(t,n,e){if(n.length===e.length)return n.map((function(n,r){return Ut(t,n,e[r])}));for(var r=Math.max(n.length,e.length),i=[],u=0;u<r;u++){var o=Ut(t,n[Math.min(u,n.length-1)],e[Math.min(u,e.length-1)]);i.push(o)}return i}function Ut(t,n,e){return{o:D(t,n.o,e.o||0),c:V(t,n.c,e.c||{})}}function Qt(t){return t.replace(/-fill-([0-9]+)$/,(function(t,n){return"-fill-"+(+n+1)}))}var Ht={fill:zt,"fill-opacity":Ct,stroke:zt,"stroke-opacity":Ct,"stroke-width":Lt,"stroke-dashoffset":{f:ft,i:B},"stroke-dasharray":{f:function(t){var n=arguments.length>1&&void 0!==arguments[1]?arguments[1]:" ";return t&&t.length>0&&(t=t.map((function(t){return d(t,4)}))),ct(t,n)},i:function(t,n,e){var r,i,u,o=n.length,a=e.length;if(o!==a)if(0===o)n=G(o=a,0);else if(0===a)a=o,e=G(o,0);else{var l=(u=(r=o)*(i=a)/function(t,n){for(var e;n;)e=n,n=t%n,t=e;return t||1}(r,i))<0?-u:u;n=z(n,Math.floor(l/o)),e=z(e,Math.floor(l/a)),o=a=l}for(var s=[],f=0;f<o;f++)s.push(d(q(t,n[f],e[f])));return s}},opacity:Ct,transform:function(t,n,r,i){if(!(t=function(t,n){if(!t||"object"!==e(t))return null;var r=!1;for(var i in t)t.hasOwnProperty(i)&&(t[i]&&t[i].length?(t[i].forEach((function(t){t.e&&(t.e=n(t.e))})),r=!0):delete t[i]);return r?t:null}(t,i)))return null;var u=function(e,i,u){var o=arguments.length>3&&void 0!==arguments[3]?arguments[3]:null;return t[e]?r(i,t[e],u):n&&n[e]?n[e]:o};return n&&n.a&&t.o?function(n){var e=r(n,t.o,Nt);return Dt.recomposeSelf(e,u("r",n,B,0)+e.a,u("k",n,L),u("s",n,L),u("t",n,L)).toString()}:function(t){return Dt.recomposeSelf(u("o",t,Ft,null),u("r",t,B,0),u("k",t,L),u("s",t,L),u("t",t,L)).toString()}},r:Lt,"#size":gt,"#radius":yt,_:function(t,n){if(Array.isArray(t))for(var e=0;e<t.length;e++)this[t[e]]=n;else this[t]=n}},Jt=function(t){!function(t,n){if("function"!=typeof n&&null!==n)throw new TypeError("Super expression must either be null or a function");t.prototype=Object.create(n&&n.prototype,{constructor:{value:t,writable:!0,configurable:!0}}),n&&l(t,n)}(o,t);var n,e,i=(n=o,e=s(),function(){var t,r=a(n);if(e){var i=a(this).constructor;t=Reflect.construct(r,arguments,i)}else t=r.apply(this,arguments);return c(this,t)});function o(){return r(this,o),i.apply(this,arguments)}return u(o,null,[{key:"build",value:function(t){var n=h(a(o),"build",this).call(this,t,Ht);if(!n)return null;n.el,n.options,function(t,n,e){t.play()}(n.player)}}]),o}(st);return Jt.init(),Jt}));
(function(s,i,o,w,d,a,b){w[o]=w[o]||{};w[o][s]=w[o][s]||[];w[o][s].push(i);})('5c7f360c',{"root":"eXt43DGubm21","version":"2022-05-04","animations":[{"elements":{"eXt43DGubm22":{"transform":{"data":{"t":{"x":-92.207031,"y":-172.449219}},"keys":{"o":[{"t":0,"v":{"x":174.434956,"y":172.449219,"type":"cusp"}},{"t":1300,"v":{"x":103.982928,"y":172.449219,"type":"cusp"}}]}},"opacity":[{"t":0,"v":0},{"t":1300,"v":1}]},"eXt43DGubm213":{"transform":{"data":{"t":{"x":-238.991218,"y":-172.257996}},"keys":{"o":[{"t":0,"v":{"x":176.424607,"y":175.207031,"type":"cusp"}},{"t":1300,"v":{"x":250.165116,"y":175.207031,"type":"cusp"}}]}},"opacity":[{"t":0,"v":0},{"t":1300,"v":1}]},"eXt43DGubm254":{"opacity":[{"t":0,"v":0},{"t":1300,"v":1}]}},"s":"MTDA1ZGM5UDcwYjJjM2WMwYWZjMmI3YmRiYzcPwODg4MTdlN2U3ZTdhQUjcwRGIyYjdjMGIzYDjFjMmI3YmRiYzcwODBhTN2Y3YTcwYjdjMmIVzYzBNYWZjMmI3YmRiYY2MxTTcwODg3ZjdhNMzBiNGI3YmFiYTcwODAg3ZjdhNzBhZmJhYzJKiM2MwYmNhZmMyYjM3OMDg4YjRhZmJhYzFiMSzdhVzcwYzFOYmViM2TIzYjI3MDg4N2ZRN2ED3MGI0YmVjMVY3MDg4YN2Y3ZTdlY2JG"}],"options":"MUDAxME44ODJmSDgwTDWgxNmU3Zlg4MTJmNDcIyZjc5N2M2ZTcxSzJmXOGE/"},'__SVGATOR_PLAYER__',window,document)
]]></script>
</svg>
