<svg xmlns="http://www.w3.org/2000/svg" xmlns:xlink="http://www.w3.org/1999/xlink" width="500" zoomAndPan="magnify" viewBox="0 0 375 374.999991" height="500" preserveAspectRatio="xMidYMid meet" version="1.0"><defs><g/><clipPath id="e20d492eee"><path d="M 43.457031 157 L 106 157 L 106 214.449219 L 43.457031 214.449219 Z M 43.457031 157 " clip-rule="nonzero"/></clipPath><clipPath id="1ee1e7cfff"><path d="M 76 130.449219 L 140.957031 130.449219 L 140.957031 214.449219 L 76 214.449219 Z M 76 130.449219 " clip-rule="nonzero"/></clipPath></defs><rect x="-37.5" width="450" fill="#ffffff" y="-37.499999" height="449.999989" fill-opacity="1"/><rect x="-37.5" width="450" fill="#ffffff" y="-37.499999" height="449.999989" fill-opacity="1"/><rect x="-37.5" width="450" fill="#ffffff" y="-37.499999" height="449.999989" fill-opacity="1"/><g clip-path="url(#e20d492eee)"><path fill="#222121" d="M 77.476562 203.941406 L 88.445312 185.039062 L 82.328125 174.511719 L 65.242188 203.921875 L 57.757812 203.921875 L 78.585938 168.085938 L 72.46875 157.558594 L 43.496094 207.425781 L 47.566406 214.449219 C 66.898438 214.449219 86.226562 214.449219 105.535156 214.449219 L 99.417969 203.921875 L 77.476562 203.921875 Z M 77.476562 203.941406 " fill-opacity="1" fill-rule="evenodd"/></g><g clip-path="url(#1ee1e7cfff)"><path fill="#e3032e" d="M 138.851562 203.941406 L 122.15625 175.207031 L 109.898438 175.207031 L 126.597656 203.941406 L 119.132812 203.941406 L 88.445312 151.15625 L 92.1875 144.730469 L 105.339844 167.351562 L 117.574219 167.351562 C 110.425781 155.0625 103.273438 142.757812 96.125 130.449219 L 88.269531 130.449219 C 84.257812 137.359375 80.242188 144.246094 76.230469 151.15625 L 113.035156 214.449219 C 120.984375 214.449219 128.933594 214.449219 136.90625 214.449219 L 140.917969 207.503906 Z M 138.851562 203.941406 " fill-opacity="1" fill-rule="evenodd"/></g><g fill="#222121" fill-opacity="1"><g transform="translate(146.630664, 165.117366)"><g><path d="M 22.9375 -31.03125 L 22.9375 -24.96875 L 10.296875 -24.96875 L 10.296875 -18.4375 L 19.765625 -18.4375 L 19.765625 -12.546875 L 10.296875 -12.546875 L 10.296875 0 L 2.734375 0 L 2.734375 -31.03125 Z M 22.9375 -31.03125 "/></g></g></g><g fill="#222121" fill-opacity="1"><g transform="translate(169.698316, 165.117366)"><g><path d="M 10.171875 -31.03125 L 10.171875 -12.46875 C 10.171875 -10.613281 10.625 -9.179688 11.53125 -8.171875 C 12.445312 -7.171875 13.789062 -6.671875 15.5625 -6.671875 C 17.332031 -6.671875 18.6875 -7.171875 19.625 -8.171875 C 20.570312 -9.179688 21.046875 -10.613281 21.046875 -12.46875 L 21.046875 -31.03125 L 28.59375 -31.03125 L 28.59375 -12.515625 C 28.59375 -9.742188 28.003906 -7.398438 26.828125 -5.484375 C 25.648438 -3.566406 24.066406 -2.117188 22.078125 -1.140625 C 20.085938 -0.171875 17.867188 0.3125 15.421875 0.3125 C 12.984375 0.3125 10.796875 -0.164062 8.859375 -1.125 C 6.929688 -2.082031 5.40625 -3.523438 4.28125 -5.453125 C 3.164062 -7.390625 2.609375 -9.742188 2.609375 -12.515625 L 2.609375 -31.03125 Z M 10.171875 -31.03125 "/></g></g></g><g fill="#222121" fill-opacity="1"><g transform="translate(199.748205, 165.117366)"><g><path d="M 25.0625 -31.03125 L 25.0625 -24.96875 L 16.84375 -24.96875 L 16.84375 0 L 9.28125 0 L 9.28125 -24.96875 L 1.0625 -24.96875 L 1.0625 -31.03125 Z M 25.0625 -31.03125 "/></g></g></g><g fill="#222121" fill-opacity="1"><g transform="translate(146.630664, 210.117363)"><g><path d="M 1.453125 -15.5625 C 1.453125 -18.625 2.113281 -21.351562 3.4375 -23.75 C 4.769531 -26.15625 6.617188 -28.03125 8.984375 -29.375 C 11.359375 -30.71875 14.050781 -31.390625 17.0625 -31.390625 C 20.75 -31.390625 23.898438 -30.414062 26.515625 -28.46875 C 29.140625 -26.519531 30.894531 -23.867188 31.78125 -20.515625 L 23.46875 -20.515625 C 22.851562 -21.804688 21.976562 -22.789062 20.84375 -23.46875 C 19.707031 -24.144531 18.414062 -24.484375 16.96875 -24.484375 C 14.644531 -24.484375 12.757812 -23.671875 11.3125 -22.046875 C 9.875 -20.429688 9.15625 -18.269531 9.15625 -15.5625 C 9.15625 -12.851562 9.875 -10.6875 11.3125 -9.0625 C 12.757812 -7.4375 14.644531 -6.625 16.96875 -6.625 C 18.414062 -6.625 19.707031 -6.960938 20.84375 -7.640625 C 21.976562 -8.316406 22.851562 -9.304688 23.46875 -10.609375 L 31.78125 -10.609375 C 30.894531 -7.242188 29.140625 -4.597656 26.515625 -2.671875 C 23.898438 -0.742188 20.75 0.21875 17.0625 0.21875 C 14.050781 0.21875 11.359375 -0.445312 8.984375 -1.78125 C 6.617188 -3.125 4.769531 -4.988281 3.4375 -7.375 C 2.113281 -9.769531 1.453125 -12.5 1.453125 -15.5625 Z M 1.453125 -15.5625 "/></g></g></g><g fill="#222121" fill-opacity="1"><g transform="translate(179.199454, 210.117363)"><g><path d="M 17.421875 0.3125 C 14.503906 0.3125 11.828125 -0.363281 9.390625 -1.71875 C 6.960938 -3.070312 5.03125 -4.960938 3.59375 -7.390625 C 2.164062 -9.828125 1.453125 -12.566406 1.453125 -15.609375 C 1.453125 -18.640625 2.164062 -21.363281 3.59375 -23.78125 C 5.03125 -26.195312 6.960938 -28.082031 9.390625 -29.4375 C 11.828125 -30.789062 14.503906 -31.46875 17.421875 -31.46875 C 20.335938 -31.46875 23.007812 -30.789062 25.4375 -29.4375 C 27.863281 -28.082031 29.773438 -26.195312 31.171875 -23.78125 C 32.578125 -21.363281 33.28125 -18.640625 33.28125 -15.609375 C 33.28125 -12.566406 32.570312 -9.828125 31.15625 -7.390625 C 29.75 -4.960938 27.835938 -3.070312 25.421875 -1.71875 C 23.003906 -0.363281 20.335938 0.3125 17.421875 0.3125 Z M 17.421875 -6.59375 C 19.890625 -6.59375 21.867188 -7.414062 23.359375 -9.0625 C 24.847656 -10.707031 25.59375 -12.890625 25.59375 -15.609375 C 25.59375 -18.347656 24.847656 -20.535156 23.359375 -22.171875 C 21.867188 -23.804688 19.890625 -24.625 17.421875 -24.625 C 14.910156 -24.625 12.910156 -23.8125 11.421875 -22.1875 C 9.929688 -20.570312 9.1875 -18.378906 9.1875 -15.609375 C 9.1875 -12.867188 9.929688 -10.679688 11.421875 -9.046875 C 12.910156 -7.410156 14.910156 -6.59375 17.421875 -6.59375 Z M 17.421875 -6.59375 "/></g></g></g><g fill="#222121" fill-opacity="1"><g transform="translate(212.828836, 210.117363)"><g><path d="M 10.296875 -5.828125 L 20.203125 -5.828125 L 20.203125 0 L 2.734375 0 L 2.734375 -31.03125 L 10.296875 -31.03125 Z M 10.296875 -5.828125 "/></g></g></g><g fill="#222121" fill-opacity="1"><g transform="translate(232.803095, 210.117363)"><g><path d="M 10.296875 -5.828125 L 20.203125 -5.828125 L 20.203125 0 L 2.734375 0 L 2.734375 -31.03125 L 10.296875 -31.03125 Z M 10.296875 -5.828125 "/></g></g></g><g fill="#222121" fill-opacity="1"><g transform="translate(252.777354, 210.117363)"><g><path d="M 10.296875 -24.96875 L 10.296875 -18.703125 L 20.421875 -18.703125 L 20.421875 -12.859375 L 10.296875 -12.859375 L 10.296875 -6.0625 L 21.75 -6.0625 L 21.75 0 L 2.734375 0 L 2.734375 -31.03125 L 21.75 -31.03125 L 21.75 -24.96875 Z M 10.296875 -24.96875 "/></g></g></g><g fill="#222121" fill-opacity="1"><g transform="translate(275.579855, 210.117363)"><g><path d="M 23.34375 -21.21875 C 22.78125 -22.25 21.972656 -23.035156 20.921875 -23.578125 C 19.878906 -24.128906 18.648438 -24.40625 17.234375 -24.40625 C 14.796875 -24.40625 12.835938 -23.597656 11.359375 -21.984375 C 9.890625 -20.378906 9.15625 -18.238281 9.15625 -15.5625 C 9.15625 -12.695312 9.925781 -10.460938 11.46875 -8.859375 C 13.019531 -7.253906 15.148438 -6.453125 17.859375 -6.453125 C 19.710938 -6.453125 21.28125 -6.921875 22.5625 -7.859375 C 23.84375 -8.804688 24.78125 -10.164062 25.375 -11.9375 L 15.78125 -11.9375 L 15.78125 -17.5 L 32.21875 -17.5 L 32.21875 -10.46875 C 31.664062 -8.582031 30.71875 -6.828125 29.375 -5.203125 C 28.03125 -3.585938 26.328125 -2.28125 24.265625 -1.28125 C 22.203125 -0.28125 19.875 0.21875 17.28125 0.21875 C 14.21875 0.21875 11.484375 -0.445312 9.078125 -1.78125 C 6.679688 -3.125 4.8125 -4.988281 3.46875 -7.375 C 2.125 -9.769531 1.453125 -12.5 1.453125 -15.5625 C 1.453125 -18.625 2.125 -21.351562 3.46875 -23.75 C 4.8125 -26.15625 6.675781 -28.03125 9.0625 -29.375 C 11.445312 -30.71875 14.171875 -31.390625 17.234375 -31.390625 C 20.953125 -31.390625 24.082031 -30.488281 26.625 -28.6875 C 29.175781 -26.882812 30.863281 -24.394531 31.6875 -21.21875 Z M 23.34375 -21.21875 "/></g></g></g><g fill="#222121" fill-opacity="1"><g transform="translate(308.148651, 210.117363)"><g><path d="M 10.296875 -24.96875 L 10.296875 -18.703125 L 20.421875 -18.703125 L 20.421875 -12.859375 L 10.296875 -12.859375 L 10.296875 -6.0625 L 21.75 -6.0625 L 21.75 0 L 2.734375 0 L 2.734375 -31.03125 L 21.75 -31.03125 L 21.75 -24.96875 Z M 10.296875 -24.96875 "/></g></g></g><g fill="#737373" fill-opacity="1"><g transform="translate(61.240518, 245.001135)"><g><path d="M 5.21875 0 L 6.976562 0 L 6.976562 -13.382812 L 11.984375 -13.382812 L 11.984375 -14.953125 L 0.210938 -14.953125 L 0.210938 -13.382812 L 5.21875 -13.382812 Z M 5.21875 0 "/></g></g></g><g fill="#737373" fill-opacity="1"><g transform="translate(74.851523, 245.001135)"><g><path d="M 0.210938 0 L 2.101562 0 L 3.476562 -3.585938 L 10.691406 -3.585938 L 12.046875 0 L 13.914062 0 L 8.144531 -14.953125 L 6.023438 -14.953125 Z M 3.988281 -5.152344 L 7.0625 -13.214844 L 7.105469 -13.214844 L 10.160156 -5.152344 Z M 3.988281 -5.152344 "/></g></g></g><g fill="#737373" fill-opacity="1"><g transform="translate(90.391658, 245.001135)"><g><path d="M 1.273438 0 L 10.691406 0 L 10.691406 -1.570312 L 3.03125 -1.570312 L 3.03125 -14.953125 L 1.273438 -14.953125 Z M 1.273438 0 "/></g></g></g><g fill="#737373" fill-opacity="1"><g transform="translate(102.709503, 245.001135)"><g><path d="M 1.273438 0 L 11.707031 0 L 11.707031 -1.570312 L 2.992188 -1.570312 L 2.992188 -6.957031 L 10.648438 -6.957031 L 10.648438 -8.484375 L 2.992188 -8.484375 L 2.992188 -13.382812 L 11.496094 -13.382812 L 11.496094 -14.953125 L 1.273438 -14.953125 Z M 1.273438 0 "/></g></g></g><g fill="#737373" fill-opacity="1"><g transform="translate(116.362899, 245.001135)"><g><path d="M 1.273438 0 L 3.03125 0 L 3.03125 -12.664062 L 3.074219 -12.664062 L 10.753906 0 L 13.109375 0 L 13.109375 -14.953125 L 11.324219 -14.953125 L 11.324219 -2.269531 L 11.285156 -2.269531 L 3.625 -14.953125 L 1.273438 -14.953125 Z M 1.273438 0 "/></g></g></g><g fill="#737373" fill-opacity="1"><g transform="translate(132.157427, 245.001135)"><g><path d="M 5.21875 0 L 6.976562 0 L 6.976562 -13.382812 L 11.984375 -13.382812 L 11.984375 -14.953125 L 0.210938 -14.953125 L 0.210938 -13.382812 L 5.21875 -13.382812 Z M 5.21875 0 "/></g></g></g><g fill="#737373" fill-opacity="1"><g transform="translate(152.956055, 245.001135)"><g><path d="M 1.273438 0 L 3.03125 0 L 3.03125 -12.386719 L 3.074219 -12.386719 L 8.355469 0 L 10.222656 0 L 15.503906 -12.40625 L 15.546875 -12.40625 L 15.546875 0 L 17.308594 0 L 17.308594 -14.953125 L 14.761719 -14.953125 L 9.3125 -1.929688 L 9.289062 -1.929688 L 3.816406 -14.953125 L 1.273438 -14.953125 Z M 1.273438 0 "/></g></g></g><g fill="#737373" fill-opacity="1"><g transform="translate(172.948041, 245.001135)"><g><path d="M 0.210938 0 L 2.101562 0 L 3.476562 -3.585938 L 10.691406 -3.585938 L 12.046875 0 L 13.914062 0 L 8.144531 -14.953125 L 6.023438 -14.953125 Z M 3.988281 -5.152344 L 7.0625 -13.214844 L 7.105469 -13.214844 L 10.160156 -5.152344 Z M 3.988281 -5.152344 "/></g></g></g><g fill="#737373" fill-opacity="1"><g transform="translate(188.488178, 245.001135)"><g><path d="M 1.273438 0 L 3.03125 0 L 3.03125 -12.664062 L 3.074219 -12.664062 L 10.753906 0 L 13.109375 0 L 13.109375 -14.953125 L 11.324219 -14.953125 L 11.324219 -2.269531 L 11.285156 -2.269531 L 3.625 -14.953125 L 1.273438 -14.953125 Z M 1.273438 0 "/></g></g></g><g fill="#737373" fill-opacity="1"><g transform="translate(204.282706, 245.001135)"><g><path d="M 0.210938 0 L 2.101562 0 L 3.476562 -3.585938 L 10.691406 -3.585938 L 12.046875 0 L 13.914062 0 L 8.144531 -14.953125 L 6.023438 -14.953125 Z M 3.988281 -5.152344 L 7.0625 -13.214844 L 7.105469 -13.214844 L 10.160156 -5.152344 Z M 3.988281 -5.152344 "/></g></g></g><g fill="#737373" fill-opacity="1"><g transform="translate(219.822843, 245.001135)"><g><path d="M 8.527344 0.53125 C 11.199219 0.53125 13.40625 -0.761719 14.699219 -2.882812 L 14.71875 -2.882812 L 14.890625 0 L 16.375 0 L 16.375 -8.25 L 6.257812 -8.25 L 6.257812 -6.679688 L 14.570312 -6.679688 C 14.570312 -3.457031 11.960938 -1.039062 8.675781 -1.039062 C 5.089844 -1.039062 2.503906 -3.753906 2.503906 -7.464844 C 2.503906 -11.242188 4.964844 -13.914062 8.398438 -13.914062 C 10.625 -13.914062 12.578125 -12.472656 13.277344 -10.433594 L 14.910156 -10.964844 C 14.019531 -13.59375 11.390625 -15.484375 8.421875 -15.484375 C 3.964844 -15.484375 0.742188 -12.109375 0.742188 -7.464844 C 0.742188 -2.84375 4.007812 0.53125 8.527344 0.53125 Z M 8.527344 0.53125 "/></g></g></g><g fill="#737373" fill-opacity="1"><g transform="translate(238.45808, 245.001135)"><g><path d="M 1.273438 0 L 11.707031 0 L 11.707031 -1.570312 L 2.992188 -1.570312 L 2.992188 -6.957031 L 10.648438 -6.957031 L 10.648438 -8.484375 L 2.992188 -8.484375 L 2.992188 -13.382812 L 11.496094 -13.382812 L 11.496094 -14.953125 L 1.273438 -14.953125 Z M 1.273438 0 "/></g></g></g><g fill="#737373" fill-opacity="1"><g transform="translate(252.111476, 245.001135)"><g><path d="M 1.273438 0 L 3.03125 0 L 3.03125 -12.386719 L 3.074219 -12.386719 L 8.355469 0 L 10.222656 0 L 15.503906 -12.40625 L 15.546875 -12.40625 L 15.546875 0 L 17.308594 0 L 17.308594 -14.953125 L 14.761719 -14.953125 L 9.3125 -1.929688 L 9.289062 -1.929688 L 3.816406 -14.953125 L 1.273438 -14.953125 Z M 1.273438 0 "/></g></g></g><g fill="#737373" fill-opacity="1"><g transform="translate(272.103456, 245.001135)"><g><path d="M 1.273438 0 L 11.707031 0 L 11.707031 -1.570312 L 2.992188 -1.570312 L 2.992188 -6.957031 L 10.648438 -6.957031 L 10.648438 -8.484375 L 2.992188 -8.484375 L 2.992188 -13.382812 L 11.496094 -13.382812 L 11.496094 -14.953125 L 1.273438 -14.953125 Z M 1.273438 0 "/></g></g></g><g fill="#737373" fill-opacity="1"><g transform="translate(285.756852, 245.001135)"><g><path d="M 1.273438 0 L 3.03125 0 L 3.03125 -12.664062 L 3.074219 -12.664062 L 10.753906 0 L 13.109375 0 L 13.109375 -14.953125 L 11.324219 -14.953125 L 11.324219 -2.269531 L 11.285156 -2.269531 L 3.625 -14.953125 L 1.273438 -14.953125 Z M 1.273438 0 "/></g></g></g><g fill="#737373" fill-opacity="1"><g transform="translate(301.551368, 245.001135)"><g><path d="M 5.21875 0 L 6.976562 0 L 6.976562 -13.382812 L 11.984375 -13.382812 L 11.984375 -14.953125 L 0.210938 -14.953125 L 0.210938 -13.382812 L 5.21875 -13.382812 Z M 5.21875 0 "/></g></g></g></svg>